<?xml version="1.0" encoding="UTF-8" standalone="no"?>
<svg
   height="1939"
   viewBox="-1 -1.03 171.03 132.38965234"
   width="2500"
   version="1.1"
   id="svg6"
   sodipodi:docname="logo.svg"
   inkscape:version="1.1 (c68e22c387, 2021-05-23)"
   xmlns:inkscape="http://www.inkscape.org/namespaces/inkscape"
   xmlns:sodipodi="http://sodipodi.sourceforge.net/DTD/sodipodi-0.dtd"
   xmlns="http://www.w3.org/2000/svg"
   xmlns:svg="http://www.w3.org/2000/svg">
  <defs
     id="defs10" />
  <sodipodi:namedview
     id="namedview8"
     pagecolor="#505050"
     bordercolor="#eeeeee"
     borderopacity="1"
     inkscape:pageshadow="0"
     inkscape:pageopacity="0"
     inkscape:pagecheckerboard="true"
     showgrid="false"
     inkscape:zoom="0.02645"
     inkscape:cx="-945.17958"
     inkscape:cy="-2098.2987"
     inkscape:window-width="1920"
     inkscape:window-height="1017"
     inkscape:window-x="-8"
     inkscape:window-y="-8"
     inkscape:window-maximized="1"
     inkscape:current-layer="svg6" />
  <path
     d="m103.93 130.58a8.47 8.47 0 0 1 -6.18-2.58q-3.42-3.3-6.73-6.7c-4.78-4.9-4.84-8.34 0-13.24 12-12.07 24-24 36-36.07 6.58-6.58 6.58-6.58 0-13.14q-17.76-17.85-35.61-35.74c-5.33-5.35-5.34-8.61-.11-13.94 2.1-2.17 4.17-4.31 6.36-6.36 3.86-3.62 7.7-3.84 11.47-.1q28.73 28.52 57.23 57.29c3.67 3.7 3.24 7.57-.94 11.8-9.49 9.59-19.06 19.1-28.6 28.65q-13.44 13.4-26.82 26.84c-1.84 1.81-3.7 3.44-6.07 3.29zm-59.33-109.58a8.73 8.73 0 0 1 5.74 2.71c1.78 1.76 3.54 3.53 5.31 5.3 6.58 6.59 6.61 9.24.16 15.71-5.53 5.51-10.91 11.22-16.67 16.51-3.14 2.93-3.79 4.77-.14 8 6.38 5.77 12.33 12.12 18.39 18.3 4.4 4.49 4.38 8 0 12.53-2.29 2.41-4.64 4.79-7.07 7.06-3.69 3.47-7.51 3.8-11.06.31q-18.68-18.37-37.06-37.11c-3.2-3.26-2.75-7.2.32-10.32 12.14-12.35 24.48-24.55 36.7-36.8a7.23 7.23 0 0 1 5.38-2.2z"
     fill="#35404a"
     id="path2"
     style="fill:#0086ff;fill-opacity:1" />
  <path
     d="m84.1 42.5a9.25 9.25 0 0 1 6.24 3c4.72 4.71 9.5 9.35 14.12 14.16 3.78 3.93 3.85 7.43.09 11.4-4.7 5-9.56 9.77-14.48 14.5-3.77 3.63-7.26 3.78-11 .25-5.22-4.9-10.24-10-15.22-15.18-3.21-3.31-3.1-7.06-.06-10.29 5.13-5.46 10.54-10.66 15.89-15.92a6.94 6.94 0 0 1 4.42-1.92z"
     fill="#fe5c36"
     id="path4"
     style="fill:#0029ff;fill-opacity:1" />
</svg>
